<svg xmlns="http://www.w3.org/2000/svg" width="24" height="24" viewBox="0 0 24 24" fill="none">
  <path d="M22 12.333L16 12.333L14 15.333H10L8 12.333H2" stroke="black" stroke-linecap="round" stroke-linejoin="round"/>
  <path d="M5.45 5.44301L2 12.333L2 18.333C2 18.8634 2.21071 19.3721 2.58579 19.7472C2.96086 20.1223 3.46957 20.333 4 20.333H20C20.5304 20.333 21.0391 20.1223 21.4142 19.7472C21.7893 19.3721 22 18.8634 22 18.333V12.333L18.55 5.44301C18.3844 5.1098 18.1292 4.82938 17.813 4.63329C17.4967 4.4372 17.1321 4.33321 16.76 4.33301L7.24 4.33301C6.86792 4.33321 6.50326 4.4372 6.18704 4.63329C5.87083 4.82938 5.61558 5.1098 5.45 5.44301Z" stroke="black" stroke-linecap="round" stroke-linejoin="round"/>
</svg>