<svg
  width="26"
  height="5"
  viewBox="0 0 26 8"
  fill="none"
  xmlns="http://www.w3.org/2000/svg"
>
  <path
    d="M4 7C5.65685 7 7 5.65685 7 4C7 2.34315 5.65685 1 4 1C2.34315 1 1 2.34315 1 4C1 5.65685 2.34315 7 4 7Z"
    fill="black"
  
   
  
  />
  <path
    d="M13 7C14.6569 7 16 5.65685 16 4C16 2.34315 14.6569 1 13 1C11.3431 1 10 2.34315 10 4C10 5.65685 11.3431 7 13 7Z"
    fill="black"
    
    
    
  />
  <path
    d="M22 7C23.6569 7 25 5.65685 25 4C25 2.34315 23.6569 1 22 1C20.3431 1 19 2.34315 19 4C19 5.65685 20.3431 7 22 7Z"
    fill="black"
    
    
    
  />
</svg>
