<svg width="24" height="24" viewBox="0 0 24 24" fill="none" xmlns="http://www.w3.org/2000/svg">
<path d="M19.1134 9.46777C19.1134 9.46777 18.569 16.203 18.2532 19.0402C18.1029 20.3952 17.2638 21.1892 15.8894 21.2142C13.2739 21.2612 10.6555 21.2642 8.041 21.2092C6.71873 21.1822 5.89369 20.3782 5.74633 19.0472C5.42854 16.185 4.88721 9.46777 4.88721 9.46777" stroke="black" strokeWidth="1.5" strokeLinecap="round" strokeLinejoin="round"/>
<path d="M20.5 6.23913H3.5" stroke="black" strokeWidth="1.5" strokeLinecap="round" strokeLinejoin="round"/>
<path d="M17.2244 6.23914C16.4375 6.23914 15.7598 5.68412 15.6054 4.91509L15.3618 3.69904C15.2115 3.13802 14.7022 2.75 14.1218 2.75H9.8783C9.29787 2.75 8.78861 3.13802 8.63824 3.69904L8.39463 4.91509C8.24025 5.68412 7.56258 6.23914 6.77563 6.23914" stroke="black" strokeWidth="1.5" strokeLinecap="round" strokeLinejoin="round"/>
</svg>
